<svg width="636" height="581" viewBox="0 0 636 581" fill="none" xmlns="http://www.w3.org/2000/svg">
<path d="M181.238 367.698C180.265 367.288 179.383 366.644 178.656 365.81C177.928 364.976 177.372 363.973 177.027 362.871C176.681 361.769 176.555 360.596 176.657 359.433C176.758 358.271 177.086 357.148 177.615 356.143L161.306 334.461L174.338 332.71L187.827 353.567C189.27 354.679 190.3 356.347 190.721 358.256C191.143 360.165 190.927 362.181 190.115 363.923C189.303 365.665 187.951 367.011 186.314 367.707C184.678 368.403 182.872 368.399 181.238 367.698Z" fill="#FFB6B6"/>
<path d="M114.093 570.902L122.757 570.901L126.88 533.326L114.091 533.327L114.093 570.902Z" fill="#FFB6B6"/>
<path d="M111.882 567.721L114.321 567.721L123.843 563.367L128.947 567.72H128.947C131.831 567.72 134.597 569.009 136.637 571.301C138.676 573.594 139.822 576.704 139.822 579.946V580.343L111.883 580.345L111.882 567.721Z" fill="#2F2E41"/>
<path d="M147.671 564.763L156.123 566.908L167.506 531.277L155.031 528.11L147.671 564.763Z" fill="#FFB6B6"/>
<path d="M146.138 561.113L148.517 561.717L158.658 559.828L162.783 565.338L162.784 565.338C165.597 566.053 168.043 567.994 169.583 570.736C171.123 573.477 171.631 576.794 170.996 579.957L170.918 580.344L143.665 573.426L146.138 561.113Z" fill="#2F2E41"/>
<path d="M98.2296 377.623L106.065 476.319C106.065 476.319 103.129 535.572 112.603 556.422H126.342L133.144 470.908L133.999 413.51L163.454 461.935L144.693 555.024L161.603 556.724L192.047 455.7L158.6 360.862L98.2296 377.623Z" fill="#2F2E41"/>
<path d="M106.436 220.452C117.596 220.452 126.643 210.281 126.643 197.734C126.643 185.187 117.596 175.016 106.436 175.016C95.2756 175.016 86.2286 185.187 86.2286 197.734C86.2286 210.281 95.2756 220.452 106.436 220.452Z" fill="#FFB8B8"/>
<path d="M148.857 242.101L125.381 234.104L122.326 223.542L97.1501 228.136L91.8011 238.447L74.4855 256.549L94.7727 359.676L94.1586 382.2C94.1586 382.2 107.143 388.772 163.454 373.641C164.129 373.459 162.715 372.665 162.715 372.665L148.857 242.101Z" fill="#3F3D56"/>
<path d="M171.152 355.78L143.632 314.35L135.831 240.925L136.058 240.801C138.189 239.648 140.541 239.108 142.904 239.231C145.266 239.354 147.564 240.134 149.591 241.504C151.618 242.873 153.311 244.787 154.516 247.074C155.722 249.361 156.403 251.949 156.498 254.606L158.12 299.978L185.451 340.527L171.152 355.78Z" fill="#3F3D56"/>
<path d="M85.4234 210.624C85.2826 210.408 85.1432 210.191 85.0051 209.971C84.9496 210.103 84.9054 210.239 84.8419 210.368L85.4234 210.624Z" fill="#2F2E41"/>
<path d="M126.537 181.116C125.186 177.808 122.778 175.192 119.79 173.789C116.829 172.446 113.52 172.45 110.561 173.798C107.89 171.9 104.921 170.396 101.795 170.21C98.6695 170.024 95.3645 171.327 93.4381 174.197C93.0079 174.955 92.5193 175.669 91.9779 176.33C90.4295 177.942 88.0762 177.71 86.018 177.38C86.9412 178.269 87.8646 179.159 88.7882 180.048C87.6707 180.377 86.5531 180.705 85.4355 181.033C86.7396 181.922 88.0436 182.812 89.3476 183.701C85.5618 186.255 83.8411 191.831 84.2956 196.895C84.7256 201.69 86.7845 206.074 89.2458 209.971C90.2276 207.642 90.016 204.854 89.9998 202.231C89.9829 199.459 90.4191 196.311 92.3948 194.762C93.7276 193.717 95.4414 193.67 97.0486 193.68C105.155 193.73 113.253 194.298 121.302 195.382C122.395 195.435 123.46 195.783 124.408 196.395C126.188 197.76 126.535 200.578 126.713 203.049C127.654 198.968 128.114 194.766 128.082 190.55C128.161 187.318 127.635 184.104 126.537 181.116Z" fill="#2F2E41"/>
<path d="M124.55 456.892C142.115 456.892 156.355 440.883 156.355 421.135C156.355 401.387 142.115 385.378 124.55 385.378C106.985 385.378 92.7451 401.387 92.7451 421.135C92.7451 440.883 106.985 456.892 124.55 456.892Z" fill="#F0F0F0"/>
<path d="M124.55 384.584C122.915 384.584 121.282 384.722 119.666 384.997C118.839 385.132 118.034 385.307 117.235 385.521C111.367 387.042 105.991 390.365 101.706 395.121C97.4205 399.876 94.3948 405.877 92.9662 412.453C91.5376 419.029 91.7623 425.922 93.6152 432.363C95.4682 438.804 98.8765 444.54 103.46 448.93C104.004 449.446 104.555 449.947 105.128 450.424C109.254 453.882 114.052 456.19 119.126 457.157C124.201 458.124 129.407 457.722 134.316 455.985C139.225 454.247 143.698 451.224 147.365 447.164C151.032 443.104 153.789 438.123 155.409 432.63C157.029 427.138 157.466 421.292 156.684 415.573C155.901 409.854 153.922 404.425 150.909 399.734C147.896 395.043 143.936 391.223 139.353 388.589C134.77 385.955 129.697 384.582 124.55 384.584H124.55ZM124.55 456.097C117.937 456.105 111.497 453.73 106.174 449.319C105.594 448.843 105.036 448.35 104.492 447.825C100.026 443.59 96.7129 438.026 94.9317 431.771C93.1505 425.516 92.9735 418.822 94.4212 412.459C95.8688 406.096 98.8824 400.32 103.116 395.795C107.35 391.269 112.633 388.177 118.359 386.872C119.15 386.689 119.942 386.546 120.748 386.435C122.009 386.26 123.279 386.172 124.55 386.173C132.798 386.173 140.707 389.856 146.539 396.413C152.371 402.97 155.648 411.863 155.648 421.135C155.648 430.408 152.371 439.3 146.539 445.857C140.707 452.414 132.798 456.097 124.55 456.097Z" fill="#3F3D56"/>
<path d="M109.001 413.984H140.099C141.27 413.984 142.219 412.916 142.219 411.6C142.219 410.283 141.27 409.216 140.099 409.216H109.001C107.83 409.216 106.881 410.283 106.881 411.6C106.881 412.916 107.83 413.984 109.001 413.984Z" fill="#6C63FF"/>
<path d="M109.001 423.519H140.099C141.27 423.519 142.219 422.452 142.219 421.135C142.219 419.818 141.27 418.751 140.099 418.751H109.001C107.83 418.751 106.881 419.818 106.881 421.135C106.881 422.452 107.83 423.519 109.001 423.519Z" fill="#6C63FF"/>
<path d="M109.001 433.054H140.099C141.27 433.054 142.219 431.987 142.219 430.67C142.219 429.354 141.27 428.286 140.099 428.286H109.001C107.83 428.286 106.881 429.354 106.881 430.67C106.881 431.987 107.83 433.054 109.001 433.054Z" fill="#6C63FF"/>
<path d="M126.585 395.528C125.558 395.35 124.579 394.921 123.715 394.271C122.852 393.621 122.126 392.766 121.588 391.767C121.05 390.767 120.714 389.647 120.603 388.486C120.492 387.325 120.609 386.15 120.945 385.045L101.05 367.553L113.491 362.854L130.477 380.185C132.091 380.943 133.401 382.341 134.16 384.113C134.918 385.885 135.072 387.909 134.593 389.8C134.113 391.691 133.033 393.319 131.557 394.375C130.081 395.431 128.312 395.841 126.585 395.528H126.585Z" fill="#FFB6B6"/>
<path d="M86.7375 256.257L74.4856 256.549C72.0821 259.038 70.1695 262.065 68.8712 265.437C67.5729 268.808 66.9177 272.448 66.9479 276.121V341.206L112.922 384.419L127.788 368.235L93.5691 326.321L86.7375 256.257Z" fill="#3F3D56"/>
<path d="M636 101.369H180.937V429.026H636V101.369Z" fill="#E6E6E6"/>
<path d="M622.987 142.465H193.949V409.641H622.987V142.465Z" fill="white"/>
<path d="M635.806 101.079H180.742V122.814H635.806V101.079Z" fill="#6C63FF"/>
<path d="M195.109 116.219C197.088 116.219 198.692 114.415 198.692 112.191C198.692 109.966 197.088 108.162 195.109 108.162C193.13 108.162 191.526 109.966 191.526 112.191C191.526 114.415 193.13 116.219 195.109 116.219Z" fill="white"/>
<path d="M208.71 116.219C210.689 116.219 212.293 114.415 212.293 112.191C212.293 109.966 210.689 108.162 208.71 108.162C206.731 108.162 205.127 109.966 205.127 112.191C205.127 114.415 206.731 116.219 208.71 116.219Z" fill="white"/>
<path d="M222.311 116.219C224.29 116.219 225.894 114.415 225.894 112.191C225.894 109.966 224.29 108.162 222.311 108.162C220.332 108.162 218.727 109.966 218.727 112.191C218.727 114.415 220.332 116.219 222.311 116.219Z" fill="white"/>
<path d="M454.075 170.187H362.206V228.468H454.075V170.187Z" fill="#6C63FF"/>
<path d="M454.075 244.699H362.206V307.407H454.075V244.699Z" fill="#E6E6E6"/>
<path d="M584.004 170.187H473.761V262.459H584.004V170.187Z" fill="#E6E6E6"/>
<path d="M584.004 289.647H473.761V381.92H584.004V289.647Z" fill="#6C63FF"/>
<path d="M343.701 170.187H233.458V262.459H343.701V170.187Z" fill="#E6E6E6"/>
<path d="M439.052 63.2832L407.648 196.103L409.087 196.533L440.197 64.9566L439.052 63.2832Z" fill="#3F3D56"/>
<path d="M529.7 334.995L498.59 466.572L499.734 468.245L531.139 335.424L529.7 334.995Z" fill="#3F3D56"/>
<path d="M341.529 318.352H235.513C234.857 318.352 234.228 318.059 233.764 317.538C233.3 317.016 233.039 316.309 233.039 315.571C233.039 314.834 233.3 314.126 233.764 313.605C234.228 313.083 234.857 312.79 235.513 312.79H341.529C342.185 312.79 342.814 313.083 343.278 313.605C343.742 314.126 344.002 314.834 344.002 315.571C344.002 316.309 343.742 317.016 343.278 317.538C342.814 318.059 342.185 318.352 341.529 318.352Z" fill="#E6E6E6"/>
<path d="M341.529 302.46H235.513C234.857 302.46 234.228 302.167 233.764 301.646C233.3 301.124 233.039 300.417 233.039 299.679C233.039 298.941 233.3 298.234 233.764 297.713C234.228 297.191 234.857 296.898 235.513 296.898H341.529C342.185 296.898 342.814 297.191 343.278 297.713C343.742 298.234 344.002 298.941 344.002 299.679C344.002 300.417 343.742 301.124 343.278 301.646C342.814 302.167 342.185 302.46 341.529 302.46Z" fill="#E6E6E6"/>
<path d="M341.529 334.244H235.513C234.857 334.244 234.228 333.951 233.764 333.429C233.3 332.908 233.039 332.201 233.039 331.463C233.039 330.725 233.3 330.018 233.764 329.496C234.228 328.975 234.857 328.682 235.513 328.682H341.529C342.185 328.682 342.814 328.975 343.278 329.496C343.742 330.018 344.002 330.725 344.002 331.463C344.002 332.201 343.742 332.908 343.278 333.429C342.814 333.951 342.185 334.244 341.529 334.244Z" fill="#E6E6E6"/>
<path d="M341.529 350.136H235.513C234.857 350.136 234.228 349.843 233.764 349.321C233.3 348.8 233.039 348.092 233.039 347.355C233.039 346.617 233.3 345.91 233.764 345.388C234.228 344.867 234.857 344.574 235.513 344.574H341.529C342.185 344.574 342.814 344.867 343.278 345.388C343.742 345.91 344.002 346.617 344.002 347.355C344.002 348.092 343.742 348.8 343.278 349.321C342.814 349.843 342.185 350.136 341.529 350.136Z" fill="#E6E6E6"/>
<path d="M341.529 366.028H235.513C234.857 366.028 234.228 365.735 233.764 365.213C233.3 364.692 233.039 363.984 233.039 363.247C233.039 362.509 233.3 361.802 233.764 361.28C234.228 360.759 234.857 360.466 235.513 360.466H341.529C342.185 360.466 342.814 360.759 343.278 361.28C343.742 361.802 344.002 362.509 344.002 363.247C344.002 363.984 343.742 364.692 343.278 365.213C342.814 365.735 342.185 366.028 341.529 366.028Z" fill="#E6E6E6"/>
<path d="M341.529 381.92H235.513C234.857 381.92 234.228 381.627 233.764 381.105C233.3 380.583 233.039 379.876 233.039 379.139C233.039 378.401 233.3 377.694 233.764 377.172C234.228 376.65 234.857 376.357 235.513 376.357H341.529C342.185 376.357 342.814 376.65 343.278 377.172C343.742 377.694 344.002 378.401 344.002 379.139C344.002 379.876 343.742 380.583 343.278 381.105C342.814 381.627 342.185 381.92 341.529 381.92Z" fill="#E6E6E6"/>
<path d="M451.96 334.244H364.32C363.664 334.244 363.035 333.951 362.571 333.429C362.107 332.908 361.847 332.201 361.847 331.463C361.847 330.725 362.107 330.018 362.571 329.496C363.035 328.975 363.664 328.682 364.32 328.682H451.96C452.616 328.682 453.245 328.975 453.709 329.496C454.173 330.018 454.434 330.725 454.434 331.463C454.434 332.201 454.173 332.908 453.709 333.429C453.245 333.951 452.616 334.244 451.96 334.244Z" fill="#E6E6E6"/>
<path d="M451.96 350.136H364.32C363.664 350.136 363.035 349.843 362.571 349.321C362.107 348.8 361.847 348.092 361.847 347.355C361.847 346.617 362.107 345.91 362.571 345.388C363.035 344.867 363.664 344.574 364.32 344.574H451.96C452.616 344.574 453.245 344.867 453.709 345.388C454.173 345.91 454.434 346.617 454.434 347.355C454.434 348.092 454.173 348.8 453.709 349.321C453.245 349.843 452.616 350.136 451.96 350.136Z" fill="#E6E6E6"/>
<path d="M451.96 366.028H364.32C363.664 366.028 363.035 365.735 362.571 365.213C362.107 364.692 361.847 363.984 361.847 363.247C361.847 362.509 362.107 361.802 362.571 361.28C363.035 360.759 363.664 360.466 364.32 360.466H451.96C452.616 360.466 453.245 360.759 453.709 361.28C454.173 361.802 454.434 362.509 454.434 363.247C454.434 363.984 454.173 364.692 453.709 365.213C453.245 365.735 452.616 366.028 451.96 366.028Z" fill="#E6E6E6"/>
<path d="M451.96 381.92H364.32C363.664 381.92 363.035 381.627 362.571 381.105C362.107 380.583 361.847 379.876 361.847 379.139C361.847 378.401 362.107 377.694 362.571 377.172C363.035 376.65 363.664 376.357 364.32 376.357H451.96C452.616 376.357 453.245 376.65 453.709 377.172C454.173 377.694 454.434 378.401 454.434 379.139C454.434 379.876 454.173 380.583 453.709 381.105C453.245 381.627 452.616 381.92 451.96 381.92Z" fill="#E6E6E6"/>
<path d="M441.184 72.3082C458.749 72.3082 472.988 56.2993 472.988 36.5514C472.988 16.8035 458.749 0.794678 441.184 0.794678C423.618 0.794678 409.379 16.8035 409.379 36.5514C409.379 56.2993 423.618 72.3082 441.184 72.3082Z" fill="#F0F0F0"/>
<path d="M441.184 8.47223e-07C439.549 0.000219708 437.916 0.138334 436.3 0.413187C435.473 0.548268 434.667 0.723042 433.868 0.937622C428.001 2.45815 422.625 5.78158 418.339 10.5371C414.054 15.2926 411.028 21.2932 409.6 27.8694C408.171 34.4456 408.396 41.3387 410.249 47.7797C412.102 54.2206 415.51 59.9561 420.094 64.3463C420.638 64.8627 421.189 65.3633 421.761 65.8401C425.888 69.2988 430.685 71.6065 435.76 72.5732C440.834 73.54 446.04 73.1382 450.95 71.4009C455.859 69.6636 460.331 66.6404 463.998 62.5803C467.665 58.5201 470.422 53.5389 472.043 48.0467C473.663 42.5546 474.1 36.7083 473.317 30.9892C472.535 25.2701 470.556 19.8416 467.543 15.1504C464.53 10.4592 460.569 6.63946 455.987 4.00552C451.404 1.37159 446.33 -0.00124502 441.184 8.47223e-07ZM441.184 71.5135C434.571 71.5215 428.131 69.146 422.807 64.7356C422.228 64.2589 421.67 63.7662 421.125 63.2418C416.66 59.0068 413.347 53.4425 411.565 47.1872C409.784 40.9319 409.607 34.2388 411.055 27.8756C412.502 21.5123 415.516 15.7367 419.75 11.211C423.984 6.68535 429.267 3.59293 434.992 2.28843C435.784 2.10567 436.575 1.96264 437.381 1.8514C438.643 1.67577 439.913 1.58821 441.184 1.58919C449.431 1.58919 457.341 5.27269 463.173 11.8294C469.005 18.386 472.282 27.2788 472.282 36.5513C472.282 45.8239 469.005 54.7166 463.173 61.2733C457.341 67.83 449.431 71.5135 441.184 71.5135Z" fill="#3F3D56"/>
<path d="M425.635 29.3999L456.733 29.3999C457.904 29.3999 458.853 28.3326 458.853 27.0161C458.853 25.6996 457.904 24.6323 456.733 24.6323L425.635 24.6323C424.464 24.6323 423.514 25.6996 423.514 27.0161C423.514 28.3326 424.464 29.3999 425.635 29.3999Z" fill="#6C63FF"/>
<path d="M425.635 38.9351L456.733 38.9351C457.904 38.9351 458.853 37.8678 458.853 36.5513C458.853 35.2347 457.904 34.1675 456.733 34.1675L425.635 34.1675C424.464 34.1675 423.514 35.2347 423.514 36.5513C423.514 37.8678 424.464 38.9351 425.635 38.9351Z" fill="#6C63FF"/>
<path d="M425.635 48.4702L456.733 48.4702C457.904 48.4702 458.853 47.403 458.853 46.0864C458.853 44.7699 457.904 43.7026 456.733 43.7026L425.635 43.7026C424.464 43.7026 423.514 44.7699 423.514 46.0864C423.514 47.403 424.464 48.4702 425.635 48.4702Z" fill="#6C63FF"/>
<path d="M494.898 534.762C512.463 534.762 526.703 518.753 526.703 499.005C526.703 479.257 512.463 463.249 494.898 463.249C477.333 463.249 463.094 479.257 463.094 499.005C463.094 518.753 477.333 534.762 494.898 534.762Z" fill="#F0F0F0"/>
<path d="M494.898 462.454C493.263 462.454 491.631 462.592 490.014 462.867C489.187 463.002 488.382 463.177 487.583 463.392C481.716 464.912 476.339 468.236 472.054 472.991C467.769 477.747 464.743 483.747 463.315 490.324C461.886 496.9 462.111 503.793 463.964 510.234C465.817 516.675 469.225 522.41 473.808 526.8C474.352 527.317 474.904 527.817 475.476 528.294C479.602 531.753 484.4 534.061 489.474 535.027C494.549 535.994 499.755 535.592 504.664 533.855C509.574 532.118 514.046 529.095 517.713 525.034C521.38 520.974 524.137 515.993 525.757 510.501C527.377 505.009 527.814 499.162 527.032 493.443C526.25 487.724 524.271 482.296 521.258 477.604C518.245 472.913 514.284 469.094 509.701 466.46C505.119 463.826 500.045 462.453 494.898 462.454ZM494.898 533.968C488.286 533.976 481.845 531.6 476.522 527.19C475.943 526.713 475.384 526.22 474.84 525.696C470.375 521.461 467.061 515.897 465.28 509.641C463.499 503.386 463.322 496.693 464.77 490.33C466.217 483.966 469.231 478.191 473.465 473.665C477.699 469.139 482.981 466.047 488.707 464.743C489.498 464.56 490.29 464.417 491.096 464.306C492.357 464.13 493.627 464.042 494.898 464.043C503.146 464.043 511.056 467.727 516.888 474.283C522.72 480.84 525.996 489.733 525.996 499.005C525.996 508.278 522.72 517.171 516.888 523.727C511.056 530.284 503.146 533.968 494.898 533.968Z" fill="#3F3D56"/>
<path d="M479.349 491.854H510.447C511.618 491.854 512.568 490.787 512.568 489.47C512.568 488.154 511.618 487.086 510.447 487.086H479.349C478.178 487.086 477.229 488.154 477.229 489.47C477.229 490.787 478.178 491.854 479.349 491.854Z" fill="#6C63FF"/>
<path d="M479.349 501.389H510.447C511.618 501.389 512.568 500.322 512.568 499.005C512.568 497.689 511.618 496.622 510.447 496.622H479.349C478.178 496.622 477.229 497.689 477.229 499.005C477.229 500.322 478.178 501.389 479.349 501.389Z" fill="#6C63FF"/>
<path d="M479.349 510.924H510.447C511.618 510.924 512.568 509.857 512.568 508.541C512.568 507.224 511.618 506.157 510.447 506.157H479.349C478.178 506.157 477.229 507.224 477.229 508.541C477.229 509.857 478.178 510.924 479.349 510.924Z" fill="#6C63FF"/>
<path d="M245.592 581H0.84155C0.618781 580.999 0.405362 580.899 0.248069 580.722C0.0907754 580.545 0.00244141 580.304 0.00244141 580.054C0.00244141 579.804 0.0907754 579.563 0.248069 579.386C0.405362 579.209 0.618781 579.109 0.84155 579.108H245.592C245.815 579.109 246.029 579.209 246.186 579.386C246.343 579.563 246.431 579.804 246.431 580.054C246.431 580.304 246.343 580.545 246.186 580.722C246.029 580.899 245.815 580.999 245.592 581Z" fill="#CACACA"/>
</svg>
